<svg width="11" height="17" viewBox="0 0 11 17" fill="none" xmlns="http://www.w3.org/2000/svg">
<path d="M5.5 8.5C5.5 7.74855 5.78973 7.02788 6.30546 6.49653C6.82118 5.96518 7.52065 5.66667 8.25 5.66667C8.97935 5.66667 9.67882 5.96518 10.1945 6.49653C10.7103 7.02788 11 7.74855 11 8.5C11 9.25145 10.7103 9.97212 10.1945 10.5035C9.67882 11.0348 8.97935 11.3333 8.25 11.3333C7.52065 11.3333 6.82118 11.0348 6.30546 10.5035C5.78973 9.97212 5.5 9.25145 5.5 8.5ZM0 14.1667C0 13.4152 0.289731 12.6946 0.805456 12.1632C1.32118 11.6318 2.02065 11.3333 2.75 11.3333H5.5V14.1667C5.5 14.9181 5.21027 15.6388 4.69454 16.1701C4.17882 16.7015 3.47935 17 2.75 17C2.02065 17 1.32118 16.7015 0.805456 16.1701C0.289731 15.6388 0 14.9181 0 14.1667ZM5.5 0V5.66667H8.25C8.97935 5.66667 9.67882 5.36816 10.1945 4.8368C10.7103 4.30545 11 3.58478 11 2.83333C11 2.08189 10.7103 1.36122 10.1945 0.829864C9.67882 0.298511 8.97935 0 8.25 0L5.5 0ZM0 2.83333C0 3.58478 0.289731 4.30545 0.805456 4.8368C1.32118 5.36816 2.02065 5.66667 2.75 5.66667H5.5V0H2.75C2.02065 0 1.32118 0.298511 0.805456 0.829864C0.289731 1.36122 0 2.08189 0 2.83333ZM0 8.5C0 9.25145 0.289731 9.97212 0.805456 10.5035C1.32118 11.0348 2.02065 11.3333 2.75 11.3333H5.5V5.66667H2.75C2.02065 5.66667 1.32118 5.96518 0.805456 6.49653C0.289731 7.02788 0 7.74855 0 8.5Z" fill="black"/>
</svg>
